<svg preserveAspectRatio="none" overflow="visible" style="display: block;" width="136" height="136" viewBox="0 0 136 136" fill="none" xmlns="http://www.w3.org/2000/svg">
<g id="Group" opacity="0.16">
<path id="Vector" d="M68 114C93.4051 114 114 93.4051 114 68C114 42.5949 93.4051 22 68 22C42.5949 22 22 42.5949 22 68C22 93.4051 42.5949 114 68 114Z" stroke="#F0B52E" stroke-width="2"/>
<path id="Vector_2" d="M68 85C77.3888 85 85 77.3888 85 68C85 58.6112 77.3888 51 68 51C58.6112 51 51 58.6112 51 68C51 77.3888 58.6112 85 68 85Z" stroke="#F0B52E" stroke-width="2"/>
<path id="Vector_3" d="M68 0V28M68 108V136M0 68H28M108 68H136" stroke="#F0B52E" stroke-width="2"/>
</g>
</svg>
